<svg xmlns="http://www.w3.org/2000/svg" width="1000" height="620" viewBox="0 0 1000 620" role="img" aria-labelledby="title desc">
<title id="title">Gaze Aversion: Rate</title>
<desc id="desc">Grouped bar chart with means and standard deviations for the Gaze-Unaware and Gaze-Aware models.</desc>
<style>.title{font:600 24px Arial,Helvetica,sans-serif;fill:#1b1b1b}.axis{font:14px Arial,Helvetica,sans-serif;fill:#1b1b1b}.label{font:15px Arial,Helvetica,sans-serif;fill:#1b1b1b}.small{font:13px Arial,Helvetica,sans-serif;fill:#1b1b1b}.grid{stroke:#d5d9dc;stroke-width:1}.frame{fill:none;stroke:#767d82;stroke-width:1}.error{stroke:#202124;stroke-width:1.5}</style>
<rect width="100%" height="100%" fill="white"/>
<text class="title" x="500.0" y="48" text-anchor="middle">Gaze Aversion: Rate</text>
<line class="grid" x1="115" y1="455.0" x2="950" y2="455.0"/>
<text class="small" x="103" y="459.0" text-anchor="end">0</text>
<line class="grid" x1="115" y1="385.0" x2="950" y2="385.0"/>
<text class="small" x="103" y="389.0" text-anchor="end">1</text>
<line class="grid" x1="115" y1="315.0" x2="950" y2="315.0"/>
<text class="small" x="103" y="319.0" text-anchor="end">2</text>
<line class="grid" x1="115" y1="245.0" x2="950" y2="245.0"/>
<text class="small" x="103" y="249.0" text-anchor="end">3</text>
<line class="grid" x1="115" y1="175.0" x2="950" y2="175.0"/>
<text class="small" x="103" y="179.0" text-anchor="end">4</text>
<line class="grid" x1="115" y1="105.0" x2="950" y2="105.0"/>
<text class="small" x="103" y="109.0" text-anchor="end">5</text>
<rect class="frame" x="115" y="105" width="835" height="350"/>
<text class="axis" transform="translate(30 280.0) rotate(-90)" text-anchor="middle">Aversions per Minute</text>
<rect x="455.5" y="192.5" width="72.0" height="262.5" fill="#4C78A8"/>
<line class="error" x1="491.5" y1="167.8" x2="491.5" y2="217.2"/>
<line class="error" x1="484.5" y1="167.8" x2="498.5" y2="167.8"/>
<line class="error" x1="484.5" y1="217.2" x2="498.5" y2="217.2"/>
<rect x="537.5" y="297.5" width="72.0" height="157.5" fill="#E45756"/>
<line class="error" x1="573.5" y1="272.8" x2="573.5" y2="322.2"/>
<line class="error" x1="566.5" y1="272.8" x2="580.5" y2="272.8"/>
<line class="error" x1="566.5" y1="322.2" x2="580.5" y2="322.2"/>
<text class="label" text-anchor="middle" x="532.5" y="488.0"><tspan x="532.5" dy="0">Gaze Aversion</tspan></text>
<rect x="345.0" y="535" width="18" height="18" fill="#4C78A8"/>
<text class="label" x="371.0" y="550">Gaze-Unaware</text>
<rect x="575.0" y="535" width="18" height="18" fill="#E45756"/>
<text class="label" x="601.0" y="550">Gaze-Aware</text>
<text class="small" x="500.0" y="586" text-anchor="middle">Bars: mean; error bars: standard deviation</text>
</svg>