<svg xmlns="http://www.w3.org/2000/svg" width="1000" height="620" viewBox="0 0 1000 620" role="img" aria-labelledby="title desc">
<title id="title">Interaction States: Mean Episode Duration</title>
<desc id="desc">Grouped bar chart with means and standard deviations for the Gaze-Unaware and Gaze-Aware models.</desc>
<style>.title{font:600 24px Arial,Helvetica,sans-serif;fill:#1b1b1b}.axis{font:14px Arial,Helvetica,sans-serif;fill:#1b1b1b}.label{font:15px Arial,Helvetica,sans-serif;fill:#1b1b1b}.small{font:13px Arial,Helvetica,sans-serif;fill:#1b1b1b}.grid{stroke:#d5d9dc;stroke-width:1}.frame{fill:none;stroke:#767d82;stroke-width:1}.error{stroke:#202124;stroke-width:1.5}</style>
<rect width="100%" height="100%" fill="white"/>
<text class="title" x="500.0" y="48" text-anchor="middle">Interaction States: Mean Episode Duration</text>
<line class="grid" x1="115" y1="455.0" x2="950" y2="455.0"/>
<text class="small" x="103" y="459.0" text-anchor="end">0</text>
<line class="grid" x1="115" y1="385.0" x2="950" y2="385.0"/>
<text class="small" x="103" y="389.0" text-anchor="end">1000</text>
<line class="grid" x1="115" y1="315.0" x2="950" y2="315.0"/>
<text class="small" x="103" y="319.0" text-anchor="end">2000</text>
<line class="grid" x1="115" y1="245.0" x2="950" y2="245.0"/>
<text class="small" x="103" y="249.0" text-anchor="end">3000</text>
<line class="grid" x1="115" y1="175.0" x2="950" y2="175.0"/>
<text class="small" x="103" y="179.0" text-anchor="end">4000</text>
<line class="grid" x1="115" y1="105.0" x2="950" y2="105.0"/>
<text class="small" x="103" y="109.0" text-anchor="end">5000</text>
<rect class="frame" x="115" y="105" width="835" height="350"/>
<text class="axis" transform="translate(30 280.0) rotate(-90)" text-anchor="middle">Mean Episode Duration (ms)</text>
<rect x="177.2" y="289.6" width="72.0" height="165.4" fill="#4C78A8"/>
<line class="error" x1="213.2" y1="285.9" x2="213.2" y2="293.3"/>
<line class="error" x1="206.2" y1="285.9" x2="220.2" y2="285.9"/>
<line class="error" x1="206.2" y1="293.3" x2="220.2" y2="293.3"/>
<rect x="259.2" y="224.0" width="72.0" height="231.0" fill="#E45756"/>
<line class="error" x1="295.2" y1="207.5" x2="295.2" y2="240.5"/>
<line class="error" x1="288.2" y1="207.5" x2="302.2" y2="207.5"/>
<line class="error" x1="288.2" y1="240.5" x2="302.2" y2="240.5"/>
<text class="label" text-anchor="middle" x="254.2" y="488.0"><tspan x="254.2" dy="0">User Looks at</tspan><tspan x="254.2" dy="18">Avatar</tspan></text>
<rect x="455.5" y="345.8" width="72.0" height="109.2" fill="#4C78A8"/>
<line class="error" x1="491.5" y1="322.0" x2="491.5" y2="369.6"/>
<line class="error" x1="484.5" y1="322.0" x2="498.5" y2="322.0"/>
<line class="error" x1="484.5" y1="369.6" x2="498.5" y2="369.6"/>
<rect x="537.5" y="179.7" width="72.0" height="275.3" fill="#E45756"/>
<line class="error" x1="573.5" y1="153.3" x2="573.5" y2="206.1"/>
<line class="error" x1="566.5" y1="153.3" x2="580.5" y2="153.3"/>
<line class="error" x1="566.5" y1="206.1" x2="580.5" y2="206.1"/>
<text class="label" text-anchor="middle" x="532.5" y="488.0"><tspan x="532.5" dy="0">Avatar Looks at</tspan><tspan x="532.5" dy="18">User</tspan></text>
<rect x="733.8" y="360.5" width="72.0" height="94.5" fill="#4C78A8"/>
<line class="error" x1="769.8" y1="335.8" x2="769.8" y2="385.2"/>
<line class="error" x1="762.8" y1="335.8" x2="776.8" y2="335.8"/>
<line class="error" x1="762.8" y1="385.2" x2="776.8" y2="385.2"/>
<rect x="815.8" y="247.9" width="72.0" height="207.1" fill="#E45756"/>
<line class="error" x1="851.8" y1="237.2" x2="851.8" y2="258.6"/>
<line class="error" x1="844.8" y1="237.2" x2="858.8" y2="237.2"/>
<line class="error" x1="844.8" y1="258.6" x2="858.8" y2="258.6"/>
<text class="label" text-anchor="middle" x="810.8" y="488.0"><tspan x="810.8" dy="0">Mutual Gaze</tspan></text>
<rect x="345.0" y="535" width="18" height="18" fill="#4C78A8"/>
<text class="label" x="371.0" y="550">Gaze-Unaware</text>
<rect x="575.0" y="535" width="18" height="18" fill="#E45756"/>
<text class="label" x="601.0" y="550">Gaze-Aware</text>
<text class="small" x="500.0" y="586" text-anchor="middle">Bars: mean; error bars: standard deviation</text>
</svg>